<svg width="25" height="25" viewBox="0 0 25 25" fill="none" xmlns="http://www.w3.org/2000/svg">
<path fill-rule="evenodd" clip-rule="evenodd" d="M12.7756 10.3408H11.1045V15.0822H11.7691V13.4646H12.7554C13.5941 13.4646 14.1848 12.8238 14.1848 11.8988C14.1848 10.9739 13.5995 10.3408 12.7756 10.3408ZM12.6007 12.8454H11.7691V10.96H12.6007C13.1783 10.96 13.507 11.3098 13.507 11.9066C13.507 12.5025 13.1713 12.8462 12.6007 12.8462V12.8454Z" fill="black"/>
<path fill-rule="evenodd" clip-rule="evenodd" d="M15.7549 11.4673C15.0367 11.4673 14.4996 11.9293 14.4802 12.5632H15.0771C15.1308 12.2575 15.3857 12.0563 15.7347 12.0563C16.1575 12.0563 16.4055 12.28 16.4055 12.6893V12.9657L15.5396 13.0175C14.7484 13.078 14.3115 13.4355 14.3115 14.0616C14.3115 14.6956 14.7546 15.1205 15.4059 15.1127C15.842 15.1127 16.2446 14.8666 16.4187 14.4788H16.4327V15.0756H17.0429V12.6297C17.0429 11.9293 16.54 11.4673 15.7549 11.4673ZM16.4055 13.7412C16.4055 14.2111 16.0433 14.5461 15.5738 14.5531C15.2046 14.5531 14.9629 14.3596 14.9629 14.0539C14.9629 13.7335 15.1914 13.5547 15.6274 13.5245L16.4055 13.4649V13.7412Z" fill="black"/>
<path fill-rule="evenodd" clip-rule="evenodd" d="M18.9357 14.4192H18.9225L18.097 11.5044H17.4053L18.5735 15.0833L18.5269 15.269C18.4188 15.649 18.2447 15.7915 17.9424 15.7915C17.8887 15.7915 17.7885 15.7915 17.7411 15.7768V16.358C17.7955 16.3658 17.9494 16.3805 17.996 16.3727C18.6536 16.3727 18.9559 16.0963 19.2311 15.2396L20.432 11.5044H19.7612L18.9357 14.4192Z" fill="black"/>
<path d="M22.7636 2.85H2.55455C1.5999 2.85 0.85 3.7071 0.85 4.72727V20.2727C0.85 21.2929 1.5999 22.15 2.55455 22.15H22.7636C23.7183 22.15 24.4682 21.2929 24.4682 20.2727V4.72727C24.4682 3.7071 23.7183 2.85 22.7636 2.85ZM23.3909 20.2727C23.3909 20.681 23.0946 20.9864 22.7636 20.9864H2.55455C2.22359 20.9864 1.92727 20.681 1.92727 20.2727V4.72727C1.92727 4.31899 2.22359 4.01364 2.55455 4.01364H22.7636C23.0946 4.01364 23.3909 4.31899 23.3909 4.72727V20.2727Z" fill="black" stroke="black" stroke-width="0.3"/>
<path fill-rule="evenodd" clip-rule="evenodd" d="M9.11475 11.8522C9.10697 10.979 9.75755 10.5576 9.78709 10.5377C9.42177 9.94265 8.85281 9.86147 8.64994 9.85197C8.1657 9.79843 7.70477 10.1689 7.45916 10.1689C7.21431 10.1689 6.83423 9.86061 6.43316 9.86924C5.90461 9.87788 5.41881 10.2095 5.14677 10.7346C4.59879 11.7926 5.00686 13.3583 5.54085 14.2159C5.80201 14.6348 6.1137 15.1072 6.52254 15.0899C6.91662 15.0727 7.06508 14.8075 7.54077 14.8075C8.01724 14.8075 8.15093 15.0899 8.56755 15.0813C8.99116 15.0727 9.2601 14.6538 9.51971 14.2332C9.81896 13.7461 9.94254 13.2746 9.94954 13.2495C9.94021 13.2461 9.1233 12.898 9.11475 11.8522Z" fill="black"/>
<path fill-rule="evenodd" clip-rule="evenodd" d="M8.65633 8.18164C8.34309 8.19546 7.96456 8.41396 7.73993 8.705C7.53861 8.9641 7.36217 9.37778 7.41036 9.77419C7.75936 9.80441 8.11535 9.57728 8.33299 9.28537C8.55062 8.9926 8.69597 8.58582 8.65633 8.18164Z" fill="black"/>
</svg>
