<svg width="20" height="14" viewBox="0 0 20 14" fill="none" xmlns="http://www.w3.org/2000/svg">
<g clip-path="url(#clip0_2164_3168)">
<path d="M18.8756 7.78567C19.3423 7.38356 19.3423 6.73053 18.8756 6.32841L14.0965 2.21077C13.6298 1.80865 12.8718 1.80865 12.4051 2.21077C11.9384 2.61288 11.9384 3.26591 12.4051 3.66803L15.1456 6.02924H1.30497C0.644108 6.02924 0.110195 6.48926 0.110195 7.05865C0.110195 7.62804 0.644108 8.08806 1.30497 8.08806H15.1456L12.4051 10.4493C11.9384 10.8514 11.9384 11.5044 12.4051 11.9065C12.8718 12.3087 13.6298 12.3087 14.0965 11.9065L18.8756 7.78889V7.78567Z" fill="#232222"/>
</g>
<defs>
<clipPath id="clip0_2164_3168">
<rect width="12.3529" height="19.1163" fill="white" transform="matrix(0 1 -1 0 19.2266 0.882324)"/>
</clipPath>
</defs>
</svg>
