<svg width="23" height="23" viewBox="0 0 23 23" fill="none" xmlns="http://www.w3.org/2000/svg">
<g clip-path="url(#clip0_2077_1061)">
<path d="M17.8286 5.56865C17.8286 4.94717 17.324 4.44252 16.7025 4.44252L10.3385 4.44252C9.71705 4.44252 9.2124 4.94717 9.2124 5.56865C9.2124 6.19013 9.71705 6.69477 10.3385 6.69477L13.9879 6.69477L4.77255 15.9101C4.33254 16.3501 4.33254 17.0611 4.77255 17.5011C5.21255 17.9411 5.92353 17.9411 6.36354 17.5011L15.5789 8.28576L15.5789 11.9351C15.5789 12.5566 16.0835 13.0612 16.705 13.0612C17.3265 13.0612 17.8311 12.5566 17.8311 11.9351L17.8311 5.57113L17.8286 5.56865Z" fill="#232222"/>
</g>
<defs>
<clipPath id="clip0_2077_1061">
<rect width="13.5" height="18" fill="white" transform="translate(12.7275) rotate(45)"/>
</clipPath>
</defs>
</svg>
