<svg width="24" height="24" viewBox="0 0 24 24" fill="none" xmlns="http://www.w3.org/2000/svg">
<path d="M20.85 11.4643H20.2V4.99911C20.2102 4.60899 20.1419 4.22079 19.9991 3.85739C19.8563 3.49399 19.6419 3.16275 19.3686 2.88323C19.0952 2.6037 18.7684 2.38154 18.4075 2.22984C18.0465 2.07815 17.6587 2 17.267 2C16.8753 2 16.4875 2.07815 16.1265 2.22984C15.7656 2.38154 15.4388 2.6037 15.1654 2.88323C14.8921 3.16275 14.6777 3.49399 14.5349 3.85739C14.3921 4.22079 14.3238 4.60899 14.334 4.99911V5.81598H12.816V7.0114H17.05V5.81598H15.534V4.99911C15.5261 4.76746 15.5651 4.5366 15.6486 4.32027C15.7321 4.10395 15.8585 3.90658 16.0202 3.73993C16.1819 3.57327 16.3757 3.44074 16.5899 3.35023C16.804 3.25972 17.0343 3.21307 17.267 3.21307C17.4997 3.21307 17.73 3.25972 17.9442 3.35023C18.1583 3.44074 18.3521 3.57327 18.5138 3.73993C18.6755 3.90658 18.8019 4.10395 18.8854 4.32027C18.9689 4.5366 19.0079 4.76746 19 4.99911V8.78461H17.676V9.98003H19V11.4803C17.7973 11.5116 16.5939 11.4529 15.4 11.305C14.124 11.1237 12.71 10.7411 11.216 10.3367C8.99201 9.73896 6.69201 9.11535 4.63801 9.11535H2.00001V16.8856C1.9994 17.1618 2.03026 17.4372 2.09201 17.7064C2.26378 18.4781 2.67999 19.1743 3.27922 19.6923C3.87845 20.2103 4.62896 20.5227 5.42001 20.5834V22H6.62001V20.6053H17.38V22H18.58V20.5814C19.5117 20.5036 20.38 20.0802 21.0133 19.3951C21.6467 18.7099 21.9988 17.813 22 16.8816V11.4643H20.85ZM20.8 16.8816C20.8008 17.2132 20.7359 17.5417 20.6092 17.8482C20.4824 18.1548 20.2962 18.4335 20.0612 18.6683C19.8262 18.9032 19.5471 19.0895 19.2397 19.2168C18.9324 19.344 18.6028 19.4097 18.27 19.4099H5.73001C5.15586 19.4068 4.59963 19.2105 4.15161 18.8528C3.70359 18.4951 3.39009 17.997 3.26201 17.4395C3.22022 17.2564 3.19942 17.0693 3.20001 16.8816V10.3068H4.64401C6.53801 10.3068 8.76001 10.9045 10.908 11.4883C12.44 11.9007 13.886 12.2852 15.236 12.4844C16.734 12.6976 18.236 12.6837 19.684 12.6657L20.8 12.6598V16.8816Z" fill="#232222" stroke="#232222" stroke-width="0.75"/>
</svg>
