<svg width="24" height="24" viewBox="0 0 24 24" fill="none" xmlns="http://www.w3.org/2000/svg">
<path d="M7 16.9999C7.59334 16.9999 8.17336 16.824 8.66671 16.4943C9.16006 16.1647 9.54458 15.6962 9.77164 15.148C9.9987 14.5998 10.0581 13.9966 9.94236 13.4147C9.8266 12.8327 9.54088 12.2982 9.12132 11.8786C8.70176 11.4591 8.16721 11.1733 7.58527 11.0576C7.00333 10.9418 6.40013 11.0012 5.85195 11.2283C5.30377 11.4554 4.83524 11.8399 4.50559 12.3332C4.17595 12.8266 4 13.4066 4 13.9999C4 14.7956 4.31607 15.5586 4.87868 16.1213C5.44129 16.6839 6.20435 16.9999 7 16.9999ZM7 12.9999C7.19778 12.9999 7.39112 13.0586 7.55557 13.1685C7.72002 13.2783 7.84819 13.4345 7.92388 13.6172C7.99957 13.8 8.01937 14.001 7.98079 14.195C7.9422 14.389 7.84696 14.5672 7.70711 14.707C7.56725 14.8469 7.38907 14.9421 7.19509 14.9807C7.00111 15.0193 6.80004 14.9995 6.61732 14.9238C6.43459 14.8481 6.27841 14.7199 6.16853 14.5555C6.05865 14.3911 6 14.1977 6 13.9999C6 13.7347 6.10536 13.4804 6.29289 13.2928C6.48043 13.1053 6.73478 12.9999 7 12.9999ZM20 9.99993H12C11.7348 9.99993 11.4804 10.1053 11.2929 10.2928C11.1054 10.4804 11 10.7347 11 10.9999V17.9999H3V1.50008L2.5 1.5H2H1.5L1 1.50008V22.5H1.29289H2H2.70711H3V19.9999H21V22.5H21.2929H22H22.7071H23V12.9999C23 12.2043 22.6839 11.4412 22.1213 10.8786C21.5587 10.316 20.7956 9.99993 20 9.99993ZM21 17.9999H13V11.9999H20C20.2652 11.9999 20.5196 12.1053 20.7071 12.2928C20.8946 12.4804 21 12.7347 21 12.9999V17.9999Z" fill="#232222"/>
</svg>
