<svg width="14" height="14" viewBox="0 0 14 14" fill="none" xmlns="http://www.w3.org/2000/svg">
<path d="M12.0912 3.20459V12.0228L10.7998 11.0931L9.50818 12.0228L8.21674 11.0931L6.92516 12.0228L5.63371 11.0931L4.36182 12.0228V3.20459C4.36182 2.52701 3.81248 1.97754 3.13477 1.97754H10.8643C11.5419 1.97754 12.0912 2.52701 12.0912 3.20459Z" stroke="#232222" stroke-width="0.75" stroke-miterlimit="10" stroke-linecap="round" stroke-linejoin="round"/>
<path d="M8.22693 7.27361V6.76146M8.22693 3.84307V3.33078M7.26676 6.08867C7.26676 6.46014 7.57889 6.76133 7.96389 6.76133H8.48984C8.90752 6.76133 9.24603 6.43471 9.24603 6.03166C9.24603 5.83014 9.16141 5.64775 9.02455 5.51582C8.88769 5.38375 8.69875 5.30213 8.48984 5.30213H7.96389C7.54635 5.30213 7.20769 4.97551 7.20769 4.5726C7.20769 4.37107 7.29232 4.18869 7.42918 4.05676C7.56603 3.92469 7.75498 3.84307 7.96389 3.84307H8.48984C8.87484 3.84307 9.18697 4.14426 9.18697 4.51572M6.4243 8.64654H10.0294M7.44764 9.78186H9.00623M4.36217 3.20459V6.98418H1.9082V3.20459C1.9082 2.8658 2.04561 2.559 2.26764 2.33697C2.48967 2.11494 2.79633 1.97754 3.13512 1.97754C3.81283 1.97754 4.36217 2.52701 4.36217 3.20459Z" stroke="#232222" stroke-width="0.75" stroke-miterlimit="10" stroke-linecap="round" stroke-linejoin="round"/>
</svg>
