<svg width="20" height="20" viewBox="0 0 20 20" fill="none" xmlns="http://www.w3.org/2000/svg">
<path d="M4.21875 16.5625V7.10938C4.21875 5.72297 4.21875 5.02977 4.50277 4.50666C4.71897 4.10847 5.04597 3.78147 5.44416 3.56527C5.96727 3.28125 6.66047 3.28125 8.04688 3.28125C9.43328 3.28125 10.1265 3.28125 10.6496 3.56527C11.0478 3.78147 11.3748 4.10847 11.591 4.50666C11.875 5.02977 11.875 5.72297 11.875 7.10938V16.5625V10.7031C11.875 10.0473 11.875 9.7193 11.995 9.46556C12.1187 9.20413 12.3291 8.99366 12.5906 8.87002C12.8443 8.75 13.1723 8.75 13.8281 8.75C14.484 8.75 14.812 8.75 15.0657 8.87002C15.3271 8.99366 15.5376 9.20413 15.6613 9.46556C15.7813 9.7193 15.7812 10.0473 15.7812 10.7031V16.5625" stroke="white"/>
<path d="M9.84375 16.5625V14.375C9.84375 14.0846 9.84375 13.9395 9.82239 13.8183C9.71973 13.2361 9.26389 12.7803 8.68169 12.6776C8.56053 12.6563 8.41536 12.6562 8.125 12.6562C7.83464 12.6562 7.68947 12.6563 7.56831 12.6776C6.98611 12.7803 6.53027 13.2361 6.42761 13.8183C6.40625 13.9395 6.40625 14.0846 6.40625 14.375V16.5625" stroke="white"/>
<path d="M17.1875 16.5625H2.8125M9.84375 8.125H6.40625M9.84375 6.25H6.40625M9.84375 10H6.40625" stroke="white" stroke-linecap="round" stroke-linejoin="round"/>
</svg>
