<svg width="25" height="25" viewBox="0 0 25 25" fill="none" xmlns="http://www.w3.org/2000/svg">
<path d="M21.8408 4.6001H3.71582C2.68176 4.6001 1.84082 5.54195 1.84082 6.7001V19.3001C1.84082 20.4582 2.68176 21.4001 3.71582 21.4001H21.8408C22.8749 21.4001 23.7158 20.4582 23.7158 19.3001V6.7001C23.7158 5.54195 22.8749 4.6001 21.8408 4.6001ZM3.71582 6.0001H21.8408C22.1855 6.0001 22.4658 6.31405 22.4658 6.7001V7.4001H3.09082V6.7001C3.09082 6.31405 3.37113 6.0001 3.71582 6.0001ZM22.4658 8.8001V10.2001H3.09082V8.8001H22.4658ZM21.8408 20.0001H3.71582C3.37113 20.0001 3.09082 19.6861 3.09082 19.3001V11.6001H22.4658V19.3001C22.4658 19.6861 22.1855 20.0001 21.8408 20.0001Z" fill="black"/>
<path d="M19.9658 15.1001C19.6366 15.1001 19.3134 15.198 19.0289 15.3836C18.744 15.1981 18.4204 15.1003 18.0908 15.1001C17.0568 15.1001 16.2158 16.0419 16.2158 17.2001C16.2158 18.3582 17.0568 19.3001 18.0908 19.3001C18.4204 19.2999 18.744 19.2021 19.0289 19.0166C19.3052 19.1958 19.6246 19.3001 19.9658 19.3001C20.9999 19.3001 21.8408 18.3582 21.8408 17.2001C21.8408 16.0419 20.9999 15.1001 19.9658 15.1001ZM17.4658 17.2001C17.4658 16.814 17.7461 16.5001 18.0908 16.5001C18.1268 16.5001 18.1614 16.506 18.1961 16.5123C18.1293 16.7283 18.0908 16.9589 18.0908 17.2001C18.0908 17.4412 18.1293 17.6719 18.1961 17.8878C18.1618 17.8941 18.1268 17.9001 18.0908 17.9001C17.7461 17.9001 17.4658 17.5861 17.4658 17.2001ZM19.9658 17.9001C19.6211 17.9001 19.3408 17.5861 19.3408 17.2001C19.3408 16.814 19.6211 16.5001 19.9658 16.5001C20.3105 16.5001 20.5908 16.814 20.5908 17.2001C20.5908 17.5861 20.3105 17.9001 19.9658 17.9001Z" fill="black"/>
</svg>
