<svg width="24" height="24" viewBox="0 0 24 24" fill="none" xmlns="http://www.w3.org/2000/svg">
<g clip-path="url(#clip0_2718_3101)">
<path d="M3.5 24H18.5C19.4297 23.9974 20.3204 23.626 20.9765 22.9674C21.6327 22.3087 22.0008 21.4167 22 20.487V12.95C22 12.6848 21.8946 12.4304 21.7071 12.2429C21.5196 12.0554 21.2652 11.95 21 11.95C20.7348 11.95 20.4804 12.0554 20.2929 12.2429C20.1054 12.4304 20 12.6848 20 12.95V20.487C20.0013 20.8864 19.8441 21.2701 19.5629 21.5537C19.2817 21.8374 18.8994 21.9979 18.5 22H3.5C3.10057 21.9979 2.7183 21.8374 2.43708 21.5537C2.15587 21.2701 1.99867 20.8864 2 20.487V5.513C1.99867 5.11357 2.15587 4.72993 2.43708 4.44627C2.7183 4.16262 3.10057 4.00212 3.5 4H11C11.2652 4 11.5196 3.89464 11.7071 3.70711C11.8946 3.51957 12 3.26522 12 3C12 2.73478 11.8946 2.48043 11.7071 2.29289C11.5196 2.10536 11.2652 2 11 2H3.5C2.57031 2.00265 1.67964 2.37403 1.02346 3.03265C0.367281 3.69126 -0.000797091 4.5833 1.29611e-06 5.513V20.487C-0.000797091 21.4167 0.367281 22.3087 1.02346 22.9674C1.67964 23.626 2.57031 23.9974 3.5 24Z" fill="black"/>
<path d="M9.45547 10.5441L8.66647 14.1581C8.63076 14.322 8.63686 14.4923 8.68422 14.6532C8.73158 14.8142 8.81867 14.9606 8.93747 15.0791C9.05791 15.1946 9.20441 15.2793 9.36456 15.3261C9.52472 15.373 9.6938 15.3805 9.85747 15.3481L13.4635 14.5571C13.6507 14.516 13.8222 14.4219 13.9575 14.2861L23.0715 5.1721C23.3501 4.89351 23.5711 4.56277 23.7219 4.19876C23.8727 3.83475 23.9503 3.4446 23.9503 3.0506C23.9503 2.65659 23.8727 2.26644 23.7219 1.90243C23.5711 1.53842 23.3501 1.20768 23.0715 0.929096C22.5003 0.383232 21.7406 0.0786133 20.9505 0.0786133C20.1604 0.0786133 19.4007 0.383232 18.8295 0.929096L9.72947 10.0521C9.59289 10.1865 9.49779 10.3572 9.45547 10.5441ZM20.2435 2.3441C20.4337 2.16184 20.687 2.06009 20.9505 2.06009C21.2139 2.06009 21.4672 2.16184 21.6575 2.3441C21.8425 2.53272 21.9461 2.78639 21.9461 3.0506C21.9461 3.3148 21.8425 3.56847 21.6575 3.7571L20.9505 4.4641L19.5365 3.0501L20.2435 2.3441ZM11.3435 11.2581L18.1175 4.4671L19.5175 5.8741L12.7405 12.6671L10.9455 13.0611L11.3435 11.2581Z" fill="black"/>
</g>
<defs>
<clipPath id="clip0_2718_3101">
<rect width="24" height="24" fill="white"/>
</clipPath>
</defs>
</svg>
