<svg width="17" height="18" viewBox="0 0 17 18" fill="none" xmlns="http://www.w3.org/2000/svg">
<g clip-path="url(#clip0_2079_17)">
<path d="M8.37654 4.8978C6.00006 4.8978 4.08318 6.72933 4.08318 9C4.08318 11.2707 6.00006 13.1022 8.37654 13.1022C10.753 13.1022 12.6699 11.2707 12.6699 9C12.6699 6.72933 10.753 4.8978 8.37654 4.8978ZM8.37654 11.667C6.84079 11.667 5.58529 10.4709 5.58529 9C5.58529 7.52906 6.83706 6.33304 8.37654 6.33304C9.91602 6.33304 11.1678 7.52906 11.1678 9C11.1678 10.4709 9.91229 11.667 8.37654 11.667ZM13.8469 4.73C13.8469 5.26197 13.3985 5.68682 12.8455 5.68682C12.2888 5.68682 11.8441 5.2584 11.8441 4.73C11.8441 4.20161 12.2925 3.77318 12.8455 3.77318C13.3985 3.77318 13.8469 4.20161 13.8469 4.73ZM16.6905 5.7011C16.627 4.41939 16.3206 3.28406 15.3378 2.34866C14.3588 1.41325 13.1706 1.1205 11.8292 1.05623C10.4466 0.981256 6.30272 0.981256 4.92018 1.05623C3.58247 1.11693 2.39423 1.40968 1.4115 2.34509C0.428776 3.28049 0.126111 4.41582 0.0588516 5.69753C-0.0196172 7.01852 -0.0196172 10.9779 0.0588516 12.2989C0.122374 13.5806 0.428776 14.7159 1.4115 15.6513C2.39423 16.5867 3.57874 16.8795 4.92018 16.9438C6.30272 17.0187 10.4466 17.0187 11.8292 16.9438C13.1706 16.8831 14.3588 16.5903 15.3378 15.6513C16.3168 14.7159 16.6232 13.5806 16.6905 12.2989C16.769 10.9779 16.769 7.02209 16.6905 5.7011ZM14.9044 13.7163C14.6129 14.416 14.0487 14.9551 13.3126 15.2372C12.2103 15.6549 9.59467 15.5585 8.37654 15.5585C7.15841 15.5585 4.53904 15.6513 3.44048 15.2372C2.70811 14.9587 2.14388 14.4196 1.84869 13.7163C1.4115 12.6631 1.51239 10.1639 1.51239 9C1.51239 7.8361 1.41524 5.33337 1.84869 4.28372C2.14014 3.58396 2.70437 3.04485 3.44048 2.7628C4.54278 2.34509 7.15841 2.44148 8.37654 2.44148C9.59467 2.44148 12.214 2.34866 13.3126 2.7628C14.045 3.04128 14.6092 3.58039 14.9044 4.28372C15.3416 5.33694 15.2407 7.8361 15.2407 9C15.2407 10.1639 15.3416 12.6666 14.9044 13.7163Z" fill="#FAF7F3"/>
</g>
<defs>
<clipPath id="clip0_2079_17">
<rect width="16.484" height="18" fill="white"/>
</clipPath>
</defs>
</svg>
