<svg width="21" height="20" viewBox="0 0 21 20" fill="none" xmlns="http://www.w3.org/2000/svg">
<g clip-path="url(#clip0_2079_66)">
<path d="M6.74158 0.960842C6.42678 0.234279 5.59686 -0.15244 4.80373 0.0545917L1.20604 0.992092C0.494682 1.17959 0 1.79678 0 2.4999C0 12.164 8.2011 19.9999 18.3155 19.9999C19.0514 19.9999 19.6973 19.5272 19.8936 18.8476L20.8748 15.4101C21.0915 14.6522 20.6867 13.8593 19.9263 13.5585L16.0015 11.996C15.3351 11.7304 14.5625 11.914 14.1087 12.4491L12.457 14.3749C9.57885 13.0741 7.24853 10.8476 5.88713 8.09756L7.90265 6.52334C8.46275 6.08584 8.65489 5.35147 8.37689 4.71475L6.74158 0.964748V0.960842Z" fill="white"/>
</g>
<defs>
<clipPath id="clip0_2079_66">
<rect width="20.932" height="20" fill="white"/>
</clipPath>
</defs>
</svg>
