<svg width="21" height="20" viewBox="0 0 21 20" fill="none" xmlns="http://www.w3.org/2000/svg">
<g clip-path="url(#clip0_2079_70)">
<path d="M1.96238 2.5C0.878981 2.5 0 3.33984 0 4.375C0 4.96484 0.290268 5.51953 0.78495 5.875L9.68105 12.25C10.1471 12.582 10.7849 12.582 11.251 12.25L20.1471 5.875C20.6417 5.51953 20.932 4.96484 20.932 4.375C20.932 3.33984 20.053 2.5 18.9696 2.5H1.96238ZM0 6.875V15C0 16.3789 1.17334 17.5 2.6165 17.5H18.3155C19.7587 17.5 20.932 16.3789 20.932 15V6.875L12.0359 13.25C11.1038 13.918 9.82823 13.918 8.8961 13.25L0 6.875Z" fill="white"/>
</g>
<defs>
<clipPath id="clip0_2079_70">
<rect width="20.932" height="20" fill="white"/>
</clipPath>
</defs>
</svg>
