<svg width="64" height="64" viewBox="0 0 64 64" fill="none" xmlns="http://www.w3.org/2000/svg">
<path d="M18.9701 32.0001C18.9701 32.9039 18.7021 33.7875 18.1999 34.539C17.6977 35.2906 16.984 35.8763 16.1489 36.2222C15.3139 36.5681 14.395 36.6586 13.5085 36.4823C12.622 36.3059 11.8077 35.8707 11.1686 35.2315C10.5295 34.5924 10.0942 33.7781 9.91789 32.8916C9.74156 32.0051 9.83206 31.0863 10.178 30.2512C10.5238 29.4161 11.1096 28.7024 11.8611 28.2003C12.6127 27.6981 13.4962 27.4301 14.4001 27.4301C15.6117 27.4314 16.7733 27.9133 17.6301 28.7701C18.4869 29.6268 18.9688 30.7884 18.9701 32.0001ZM14.4001 14.0701C13.4962 14.0701 12.6127 14.3381 11.8611 14.8403C11.1096 15.3424 10.5238 16.0561 10.178 16.8912C9.83206 17.7263 9.74156 18.6451 9.91789 19.5316C10.0942 20.4181 10.5295 21.2324 11.1686 21.8715C11.8077 22.5107 12.622 22.9459 13.5085 23.1223C14.395 23.2986 15.3139 23.2081 16.1489 22.8622C16.984 22.5163 17.6977 21.9306 18.1999 21.179C18.7021 20.4275 18.9701 19.5439 18.9701 18.6401C18.9688 17.4284 18.4869 16.2668 17.6301 15.4101C16.7733 14.5533 15.6117 14.0714 14.4001 14.0701ZM14.4001 40.7901C13.4962 40.7901 12.6127 41.0581 11.8611 41.5603C11.1096 42.0624 10.5238 42.7761 10.178 43.6112C9.83206 44.4463 9.74156 45.3651 9.91789 46.2516C10.0942 47.1381 10.5295 47.9524 11.1686 48.5915C11.8077 49.2307 12.622 49.6659 13.5085 49.8423C14.395 50.0186 15.3139 49.9281 16.1489 49.5822C16.984 49.2363 17.6977 48.6506 18.1999 47.899C18.7021 47.1475 18.9701 46.2639 18.9701 45.3601C18.9688 44.1484 18.4869 42.9868 17.6301 42.1301C16.7733 41.2733 15.6117 40.7914 14.4001 40.7901ZM23.5461 20.1431H52.6681C53.0659 20.1431 53.4474 19.985 53.7287 19.7037C54.01 19.4224 54.1681 19.0409 54.1681 18.6431C54.1681 18.2452 54.01 17.8637 53.7287 17.5824C53.4474 17.3011 53.0659 17.1431 52.6681 17.1431H23.5461C23.1483 17.1431 22.7667 17.3011 22.4854 17.5824C22.2041 17.8637 22.0461 18.2452 22.0461 18.6431C22.0461 19.0409 22.2041 19.4224 22.4854 19.7037C22.7667 19.985 23.1483 20.1431 23.5461 20.1431ZM52.6681 30.5001H23.5461C23.1483 30.5001 22.7667 30.6581 22.4854 30.9394C22.2041 31.2207 22.0461 31.6022 22.0461 32.0001C22.0461 32.3979 22.2041 32.7794 22.4854 33.0607C22.7667 33.342 23.1483 33.5001 23.5461 33.5001H52.6681C53.0659 33.5001 53.4474 33.342 53.7287 33.0607C54.01 32.7794 54.1681 32.3979 54.1681 32.0001C54.1681 31.6022 54.01 31.2207 53.7287 30.9394C53.4474 30.6581 53.0659 30.5001 52.6681 30.5001ZM52.6681 43.8571H23.5461C23.1483 43.8571 22.7667 44.0151 22.4854 44.2964C22.2041 44.5777 22.0461 44.9592 22.0461 45.3571C22.0461 45.7549 22.2041 46.1364 22.4854 46.4177C22.7667 46.699 23.1483 46.8571 23.5461 46.8571H52.6681C53.0659 46.8571 53.4474 46.699 53.7287 46.4177C54.01 46.1364 54.1681 45.7549 54.1681 45.3571C54.1681 44.9592 54.01 44.5777 53.7287 44.2964C53.4474 44.0151 53.0659 43.8571 52.6681 43.8571Z" fill="#222222"/>
</svg>
