<svg width="24" height="24" viewBox="0 0 24 24" fill="none" xmlns="http://www.w3.org/2000/svg">
<path d="M5.49029 13.2574L11.1478 18.6515C11.3826 18.8753 11.6925 19 12.015 19C12.3375 19 12.6474 18.8753 12.8822 18.6515L18.5397 13.2574C19.4915 12.3525 20.03 11.0831 20.03 9.75618V9.57072C20.03 7.33571 18.4489 5.43003 16.2918 5.06232C14.8641 4.81932 13.4114 5.29574 12.3907 6.3381L12.015 6.7218L11.6393 6.3381C10.6186 5.29574 9.16592 4.81932 7.73825 5.06232C5.58108 5.43003 4 7.33571 4 9.57072V9.75618C4 11.0831 4.53851 12.3525 5.49029 13.2574Z" fill="#1A501A"/>
</svg>
