<svg width="24" height="24" viewBox="0 0 24 24" fill="none" xmlns="http://www.w3.org/2000/svg">
<path d="M12.0146 19C11.438 18.9995 10.8852 18.77 10.4777 18.3621L5.68599 13.5776C4.91849 12.8287 4.38259 11.8749 4.14223 10.8299C3.90187 9.78495 3.96718 8.69286 4.33038 7.68396C4.55357 6.99387 4.96374 6.37919 5.51532 5.90824C6.06689 5.43729 6.73826 5.12852 7.4548 5.01624C8.34464 4.94992 9.2361 5.1218 10.0375 5.51422C10.8389 5.90663 11.5213 6.50542 12.0146 7.249C12.5005 6.50162 13.1795 5.89954 13.9796 5.50649C14.7798 5.11344 15.6713 4.94405 16.5598 5.01624C17.279 5.12603 17.9534 5.43367 18.5077 5.90479C19.0621 6.3759 19.4744 6.99192 19.6987 7.68396C20.0619 8.69286 20.1273 9.78495 19.8869 10.8299C19.6465 11.8749 19.1106 12.8287 18.3431 13.5776L13.5514 18.3621C13.1439 18.77 12.5912 18.9995 12.0146 19ZM7.98399 6.42984C7.87296 6.4224 7.76156 6.4224 7.65053 6.42984C7.19054 6.51174 6.76268 6.72085 6.41546 7.03348C6.06824 7.34611 5.81554 7.74975 5.68599 8.19865C5.41966 8.94568 5.37514 9.75381 5.55779 10.5256C5.74044 11.2973 6.14246 11.9998 6.71538 12.5482L11.4999 17.3399C11.5673 17.4079 11.6474 17.4618 11.7358 17.4986C11.8241 17.5354 11.9189 17.5544 12.0146 17.5544C12.1103 17.5544 12.205 17.5354 12.2934 17.4986C12.3817 17.4618 12.4619 17.4079 12.5293 17.3399L17.3137 12.5482C17.8867 11.9998 18.2887 11.2973 18.4713 10.5256C18.654 9.75381 18.6095 8.94568 18.3431 8.19865C18.209 7.75185 17.9526 7.35147 17.6029 7.04274C17.2532 6.73401 16.8241 6.52925 16.3641 6.45159C15.7297 6.41858 15.0979 6.55493 14.5335 6.84665C13.9692 7.13838 13.4926 7.57498 13.1527 8.11166C13.0174 8.28899 12.843 8.4327 12.6431 8.53163C12.4432 8.63055 12.2231 8.68202 12.0001 8.68202C11.777 8.68202 11.557 8.63055 11.3571 8.53163C11.1571 8.4327 10.9827 8.28899 10.8474 8.11166C10.5323 7.6294 10.1098 7.22662 9.61301 6.93485C9.11624 6.64308 8.55869 6.47023 7.98399 6.42984Z" fill="#1A501A"/>
</svg>
