<svg width="35" height="35" viewBox="0 0 35 35" fill="none" xmlns="http://www.w3.org/2000/svg">
<path d="M9.57031 14.9023V9.57031C9.57031 8.21116 10.6721 7.10938 12.0312 7.10938H20.2558C20.7569 7.10938 21.2379 7.30581 21.5957 7.65655L24.0764 10.0882L24.9168 10.9913C25.2465 11.3455 25.4297 11.8114 25.4297 12.2952V25.4297C25.4297 26.7888 24.3279 27.8906 22.9688 27.8906H12.0312C10.6721 27.8906 9.57031 26.7888 9.57031 25.4297V24.6094" stroke="white" stroke-width="1.5" stroke-linecap="round"/>
<path d="M20.7812 7.38281V11.2109C20.7812 11.664 21.1485 12.0312 21.6016 12.0312H25.4297" stroke="white" stroke-width="1.5"/>
<path d="M9.02344 21.7549V17.9377C9.02344 17.8976 9.03437 17.8684 9.05625 17.8502C9.07812 17.8283 9.10547 17.8174 9.13828 17.8174H10.8938C11.0797 17.8174 11.2492 17.8557 11.4023 17.9322C11.5591 18.0088 11.6922 18.109 11.8016 18.233C11.9146 18.357 12.0021 18.4991 12.0641 18.6596C12.1261 18.8163 12.157 18.9786 12.157 19.1463C12.157 19.3104 12.1261 19.4707 12.0641 19.6275C12.0057 19.7843 11.9219 19.9247 11.8125 20.0486C11.7031 20.1726 11.5719 20.2729 11.4187 20.3494C11.2656 20.4223 11.0961 20.4588 10.9102 20.4588H10.0734V21.7549C10.0734 21.8351 10.0315 21.8752 9.94766 21.8752H9.13828C9.06172 21.8752 9.02344 21.8351 9.02344 21.7549ZM10.6641 18.6814H10.0734V19.5947H10.6641C10.7989 19.5947 10.9029 19.5491 10.9758 19.458C11.0487 19.3632 11.0852 19.2575 11.0852 19.1408C11.0852 19.0861 11.0742 19.0314 11.0523 18.9768C11.0341 18.9221 11.0068 18.8729 10.9703 18.8291C10.9375 18.7854 10.8937 18.7507 10.8391 18.7252C10.788 18.696 10.7297 18.6814 10.6641 18.6814ZM12.746 21.7549V17.9377C12.746 17.8575 12.7842 17.8174 12.8608 17.8174H14.2827C14.5379 17.8174 14.7858 17.8702 15.0264 17.976C15.2707 18.0817 15.4876 18.2257 15.6772 18.408C15.8668 18.5903 16.0181 18.8054 16.1311 19.0533C16.2478 19.3012 16.3061 19.5656 16.3061 19.8463C16.3061 20.1124 16.2532 20.3676 16.1475 20.6119C16.0418 20.8562 15.8978 21.0731 15.7155 21.2627C15.5332 21.4486 15.3181 21.5981 15.0702 21.7111C14.8259 21.8205 14.5634 21.8752 14.2827 21.8752H12.8608C12.7842 21.8752 12.746 21.8351 12.746 21.7549ZM15.2452 19.8463C15.2452 19.7004 15.2178 19.5637 15.1631 19.4361C15.1121 19.3049 15.0392 19.1918 14.9444 19.0971C14.8496 19.0023 14.7366 18.9275 14.6053 18.8729C14.4777 18.8145 14.3374 18.7854 14.1842 18.7854H13.8014V20.9072H14.1842C14.3374 20.9072 14.4777 20.8799 14.6053 20.8252C14.7366 20.7668 14.8496 20.6903 14.9444 20.5955C15.0392 20.5007 15.1121 20.3895 15.1631 20.2619C15.2178 20.1307 15.2452 19.9921 15.2452 19.8463ZM16.9439 21.7549V17.9377C16.9439 17.8575 16.9822 17.8174 17.0587 17.8174H19.6673C19.7439 17.8174 19.7822 17.8575 19.7822 17.9377V18.6377C19.7822 18.7179 19.7439 18.758 19.6673 18.758H17.9994V19.6002H19.2189C19.2991 19.6002 19.3392 19.6421 19.3392 19.726V20.3877C19.3392 20.4679 19.2991 20.508 19.2189 20.508H17.9994V21.7549C17.9994 21.8351 17.9593 21.8752 17.879 21.8752H17.0587C16.9822 21.8752 16.9439 21.8351 16.9439 21.7549Z" fill="white"/>
<path d="M9.02344 21.7549V17.9377C9.02344 17.8976 9.03437 17.8684 9.05625 17.8502C9.07812 17.8283 9.10547 17.8174 9.13828 17.8174H10.8938C11.0797 17.8174 11.2492 17.8557 11.4023 17.9322C11.5591 18.0088 11.6922 18.109 11.8016 18.233C11.9146 18.357 12.0021 18.4991 12.0641 18.6596C12.1261 18.8163 12.157 18.9786 12.157 19.1463C12.157 19.3104 12.1261 19.4707 12.0641 19.6275C12.0057 19.7843 11.9219 19.9247 11.8125 20.0486C11.7031 20.1726 11.5719 20.2729 11.4187 20.3494C11.2656 20.4223 11.0961 20.4588 10.9102 20.4588H10.0734V21.7549C10.0734 21.8351 10.0315 21.8752 9.94766 21.8752H9.13828C9.06172 21.8752 9.02344 21.8351 9.02344 21.7549ZM10.6641 18.6814H10.0734V19.5947H10.6641C10.7989 19.5947 10.9029 19.5491 10.9758 19.458C11.0487 19.3632 11.0852 19.2575 11.0852 19.1408C11.0852 19.0861 11.0742 19.0314 11.0523 18.9768C11.0341 18.9221 11.0068 18.8729 10.9703 18.8291C10.9375 18.7854 10.8937 18.7507 10.8391 18.7252C10.788 18.696 10.7297 18.6814 10.6641 18.6814ZM12.746 21.7549V17.9377C12.746 17.8575 12.7842 17.8174 12.8608 17.8174H14.2827C14.5379 17.8174 14.7858 17.8702 15.0264 17.976C15.2707 18.0817 15.4876 18.2257 15.6772 18.408C15.8668 18.5903 16.0181 18.8054 16.1311 19.0533C16.2478 19.3012 16.3061 19.5656 16.3061 19.8463C16.3061 20.1124 16.2532 20.3676 16.1475 20.6119C16.0418 20.8562 15.8978 21.0731 15.7155 21.2627C15.5332 21.4486 15.3181 21.5981 15.0702 21.7111C14.8259 21.8205 14.5634 21.8752 14.2827 21.8752H12.8608C12.7842 21.8752 12.746 21.8351 12.746 21.7549ZM15.2452 19.8463C15.2452 19.7004 15.2178 19.5637 15.1631 19.4361C15.1121 19.3049 15.0392 19.1918 14.9444 19.0971C14.8496 19.0023 14.7366 18.9275 14.6053 18.8729C14.4777 18.8145 14.3374 18.7854 14.1842 18.7854H13.8014V20.9072H14.1842C14.3374 20.9072 14.4777 20.8799 14.6053 20.8252C14.7366 20.7668 14.8496 20.6903 14.9444 20.5955C15.0392 20.5007 15.1121 20.3895 15.1631 20.2619C15.2178 20.1307 15.2452 19.9921 15.2452 19.8463ZM16.9439 21.7549V17.9377C16.9439 17.8575 16.9822 17.8174 17.0587 17.8174H19.6673C19.7439 17.8174 19.7822 17.8575 19.7822 17.9377V18.6377C19.7822 18.7179 19.7439 18.758 19.6673 18.758H17.9994V19.6002H19.2189C19.2991 19.6002 19.3392 19.6421 19.3392 19.726V20.3877C19.3392 20.4679 19.2991 20.508 19.2189 20.508H17.9994V21.7549C17.9994 21.8351 17.9593 21.8752 17.879 21.8752H17.0587C16.9822 21.8752 16.9439 21.8351 16.9439 21.7549Z" stroke="white" stroke-width="0.25"/>
</svg>
