<svg width="20" height="20" viewBox="0 0 20 20" fill="none" xmlns="http://www.w3.org/2000/svg">
<path d="M10.507 4C8.02817 4 6 6.10329 6 8.65728C6 10.6854 8.70423 14.216 9.9061 15.7183C10.2066 16.0939 10.7324 16.0939 11.0329 15.7183C12.2347 14.216 14.939 10.6103 14.939 8.65728C15.0141 6.10329 12.9859 4 10.507 4ZM10.507 10.0094C9.68075 10.0094 9.00469 9.33333 9.00469 8.50704C9.00469 7.68075 9.68075 7.00469 10.507 7.00469C11.3333 7.00469 12.0094 7.68075 12.0094 8.50704C12.0094 9.33333 11.3333 10.0094 10.507 10.0094Z" stroke="#232222" stroke-miterlimit="10"/>
</svg>
