<svg width="20" height="20" viewBox="0 0 20 20" fill="none" xmlns="http://www.w3.org/2000/svg">
<path d="M10.9057 2.5625C10.7309 2.21875 10.3615 2 9.9558 2C9.55012 2 9.18402 2.21875 9.00592 2.5625L6.88518 6.69688L2.14897 7.35938C1.75319 7.41563 1.42337 7.67812 1.30133 8.0375C1.1793 8.39687 1.27825 8.79375 1.56189 9.05937L4.99861 12.2812L4.18725 16.8344C4.12129 17.2094 4.2862 17.5906 4.61272 17.8125C4.93924 18.0344 5.37131 18.0625 5.72751 17.8844L9.9591 15.7437L14.1907 17.8844C14.5469 18.0625 14.9789 18.0375 15.3055 17.8125C15.632 17.5875 15.7969 17.2094 15.7309 16.8344L14.9163 12.2812L18.353 9.05937C18.6366 8.79375 18.7389 8.39687 18.6136 8.0375C18.4882 7.67812 18.1617 7.41563 17.7659 7.35938L13.0264 6.69688L10.9057 2.5625Z" fill="#FFDF2B"/>
</svg>
