<svg width="30" height="30" viewBox="0 0 30 30" fill="none" xmlns="http://www.w3.org/2000/svg">
<path d="M14.9701 16.1883C17.9701 16.1883 20.376 13.7526 20.376 10.7823C20.376 7.81203 17.9701 5.34668 14.9701 5.34668C11.9701 5.34668 9.56416 7.78232 9.56416 10.7526C9.56416 13.7229 11.9701 16.1883 14.9701 16.1883ZM14.9701 6.77242C17.1681 6.77242 18.9503 8.5546 18.9503 10.7526C18.9503 12.9506 17.1681 14.7328 14.9701 14.7328C12.7721 14.7328 10.9899 12.9803 10.9899 10.7823C10.9899 8.5843 12.7721 6.77242 14.9701 6.77242ZM5.58396 24.6536H24.4156C24.8018 24.6536 25.1285 24.3269 25.1285 23.9407C25.1285 20.1982 22.0691 17.1388 18.3265 17.1388H11.6731C7.9305 17.1388 4.87109 20.1982 4.87109 23.9407C4.87109 24.3269 5.19783 24.6536 5.58396 24.6536ZM11.6731 18.5645H18.3265C21.0592 18.5645 23.2869 20.5843 23.6434 23.2279H6.35624C6.71268 20.5843 8.9404 18.5645 11.6731 18.5645Z" fill="white"/>
</svg>
