<svg width="25" height="25" viewBox="0 0 25 25" fill="none" xmlns="http://www.w3.org/2000/svg">
<path d="M17.2913 14.5837C17.083 14.4795 15.7288 13.8545 15.5205 13.7503C15.3122 13.6462 15.1038 13.6462 14.8955 13.8545C14.6872 14.0628 14.2705 14.6878 14.0622 14.8962C13.958 15.1045 13.7497 15.1045 13.5413 15.0003C12.8122 14.6878 12.083 14.2712 11.458 13.7503C10.9372 13.2295 10.4163 12.6045 9.99967 11.9795C9.89551 11.7712 9.99967 11.5628 10.1038 11.4587C10.208 11.3545 10.3122 11.1462 10.5205 11.042C10.6247 10.9378 10.7288 10.7295 10.7288 10.6253C10.833 10.5212 10.833 10.3128 10.7288 10.2087C10.6247 10.1045 10.1038 8.85449 9.89551 8.33366C9.79134 7.60449 9.58301 7.60449 9.37467 7.60449H8.85384C8.64551 7.60449 8.33301 7.81283 8.22884 7.91699C7.60384 8.54199 7.29134 9.27116 7.29134 10.1045C7.39551 11.042 7.70801 11.9795 8.33301 12.8128C9.47884 14.4795 10.9372 15.8337 12.708 16.667C13.2288 16.8753 13.6455 17.0837 14.1663 17.1878C14.6872 17.3962 15.208 17.3962 15.833 17.292C16.5622 17.1878 17.1872 16.667 17.6038 16.042C17.8122 15.6253 17.8122 15.2087 17.708 14.792L17.2913 14.5837ZM19.8955 5.10449C15.833 1.04199 9.27051 1.04199 5.20801 5.10449C1.87467 8.43783 1.24967 13.542 3.54134 17.6045L2.08301 22.917L7.60384 21.4587C9.16634 22.292 10.833 22.7087 12.4997 22.7087C18.2288 22.7087 22.8122 18.1253 22.8122 12.3962C22.9163 9.68782 21.7705 7.08366 19.8955 5.10449ZM17.083 19.6878C15.7288 20.5212 14.1663 21.042 12.4997 21.042C10.9372 21.042 9.47884 20.6253 8.12467 19.8962L7.81217 19.6878L4.58301 20.5212L5.41634 17.3962L5.20801 17.0837C2.70801 12.917 3.95801 7.70866 8.02051 5.10449C12.083 2.50033 17.2913 3.85449 19.7913 7.81283C22.2913 11.8753 21.1455 17.1878 17.083 19.6878Z" fill="white"/>
</svg>
